<?xml version='1.0' encoding='utf-8'?>
<svg xmlns="http://www.w3.org/2000/svg" version="1.1" width="800" height="400" viewBox="0 0 800 400">
  <rect width="100%" height="100%" fill="white" />
  <line x1="60" y1="340" x2="740" y2="340" stroke="black" stroke-width="1" />
  <line x1="60" y1="60" x2="60" y2="340" stroke="black" stroke-width="1" />
  <text x="400.0" y="390" font-size="12" text-anchor="middle" font-family="Arial">Distancia (km)</text>
  <text x="15" y="200.0" font-size="12" text-anchor="middle" font-family="Arial">Altitud (m)</text>
  <line x1="60.0" y1="340" x2="60.0" y2="345" stroke="black" stroke-width="1" />
  <text x="60.0" y="360" font-size="10" text-anchor="middle" font-family="Arial">0.0</text>
  <line x1="196.0" y1="340" x2="196.0" y2="345" stroke="black" stroke-width="1" />
  <text x="196.0" y="360" font-size="10" text-anchor="middle" font-family="Arial">0.7</text>
  <line x1="332.0" y1="340" x2="332.0" y2="345" stroke="black" stroke-width="1" />
  <text x="332.0" y="360" font-size="10" text-anchor="middle" font-family="Arial">1.4</text>
  <line x1="468.00000000000006" y1="340" x2="468.00000000000006" y2="345" stroke="black" stroke-width="1" />
  <text x="468.00000000000006" y="360" font-size="10" text-anchor="middle" font-family="Arial">2.1</text>
  <line x1="604.0" y1="340" x2="604.0" y2="345" stroke="black" stroke-width="1" />
  <text x="604.0" y="360" font-size="10" text-anchor="middle" font-family="Arial">2.8</text>
  <line x1="740.0000000000001" y1="340" x2="740.0000000000001" y2="345" stroke="black" stroke-width="1" />
  <text x="740.0000000000001" y="360" font-size="10" text-anchor="middle" font-family="Arial">3.5</text>
  <line x1="55" y1="340.0" x2="60" y2="340.0" stroke="black" stroke-width="1" />
  <text x="50" y="344.0" font-size="10" text-anchor="end" font-family="Arial">948</text>
  <line x1="55" y1="284.0" x2="60" y2="284.0" stroke="black" stroke-width="1" />
  <text x="50" y="288.0" font-size="10" text-anchor="end" font-family="Arial">962</text>
  <line x1="55" y1="228.0" x2="60" y2="228.0" stroke="black" stroke-width="1" />
  <text x="50" y="232.0" font-size="10" text-anchor="end" font-family="Arial">976</text>
  <line x1="55" y1="172.0" x2="60" y2="172.0" stroke="black" stroke-width="1" />
  <text x="50" y="176.0" font-size="10" text-anchor="end" font-family="Arial">990</text>
  <line x1="55" y1="116.0" x2="60" y2="116.0" stroke="black" stroke-width="1" />
  <text x="50" y="120.0" font-size="10" text-anchor="end" font-family="Arial">1004</text>
  <line x1="55" y1="60.0" x2="60" y2="60.0" stroke="black" stroke-width="1" />
  <text x="50" y="64.0" font-size="10" text-anchor="end" font-family="Arial">1018</text>
  <polyline points="60.00,172.00 60.00,172.00 79.43,164.00 118.29,156.00 157.14,152.00 176.57,140.00 196.00,172.00 254.29,192.00 293.14,168.00 312.57,172.00 390.29,212.00 429.14,232.00 584.57,212.00 701.14,252.00 740.00,260.00 740.00,340.00 60.00,340.00 60.00,172.00" stroke="blue" stroke-width="2" fill="#eef" />
  <text x="400.0" y="30" font-size="16" text-anchor="middle" font-family="Arial">Altimetría: Els Avencs de La Febro</text>
</svg>