<?xml version='1.0' encoding='utf-8'?>
<svg xmlns="http://www.w3.org/2000/svg" version="1.1" width="800" height="500" viewBox="0 0 800 500">
  <rect width="100%" height="100%" fill="white" />
  <line x1="80" y1="370" x2="720" y2="370" stroke="black" stroke-width="1" />
  <line x1="80" y1="80" x2="80" y2="370" stroke="black" stroke-width="1" />
  <text x="400.0" y="490" font-size="12" text-anchor="middle" font-family="Arial">Distancia (km)</text>
  <text x="15" y="250.0" font-size="12" text-anchor="middle" font-family="Arial" transform="rotate(-90, 15, 250.0)">Altitud (m)</text>
  <line x1="80.0" y1="370" x2="80.0" y2="375" stroke="black" stroke-width="1" />
  <text x="80.0" y="385" font-size="10" text-anchor="middle" font-family="Arial">0.0</text>
  <line x1="208.0" y1="370" x2="208.0" y2="375" stroke="black" stroke-width="1" />
  <text x="208.0" y="385" font-size="10" text-anchor="middle" font-family="Arial">0.4</text>
  <line x1="336.0" y1="370" x2="336.0" y2="375" stroke="black" stroke-width="1" />
  <text x="336.0" y="385" font-size="10" text-anchor="middle" font-family="Arial">0.8</text>
  <line x1="464.00000000000006" y1="370" x2="464.00000000000006" y2="375" stroke="black" stroke-width="1" />
  <text x="464.00000000000006" y="385" font-size="10" text-anchor="middle" font-family="Arial">1.3</text>
  <line x1="592.0" y1="370" x2="592.0" y2="375" stroke="black" stroke-width="1" />
  <text x="592.0" y="385" font-size="10" text-anchor="middle" font-family="Arial">1.7</text>
  <line x1="720.0" y1="370" x2="720.0" y2="375" stroke="black" stroke-width="1" />
  <text x="720.0" y="385" font-size="10" text-anchor="middle" font-family="Arial">2.1</text>
  <line x1="75" y1="370.0" x2="80" y2="370.0" stroke="black" stroke-width="1" />
  <text x="70" y="374.0" font-size="10" text-anchor="end" font-family="Arial">688</text>
  <line x1="75" y1="312.0" x2="80" y2="312.0" stroke="black" stroke-width="1" />
  <text x="70" y="316.0" font-size="10" text-anchor="end" font-family="Arial">700</text>
  <line x1="75" y1="254.0" x2="80" y2="254.0" stroke="black" stroke-width="1" />
  <text x="70" y="258.0" font-size="10" text-anchor="end" font-family="Arial">712</text>
  <line x1="75" y1="196.0" x2="80" y2="196.0" stroke="black" stroke-width="1" />
  <text x="70" y="200.0" font-size="10" text-anchor="end" font-family="Arial">724</text>
  <line x1="75" y1="138.0" x2="80" y2="138.0" stroke="black" stroke-width="1" />
  <text x="70" y="142.0" font-size="10" text-anchor="end" font-family="Arial">736</text>
  <line x1="75" y1="80.0" x2="80" y2="80.0" stroke="black" stroke-width="1" />
  <text x="70" y="84.0" font-size="10" text-anchor="end" font-family="Arial">748</text>
  <polyline points="80.00,176.67 171.43,196.00 232.38,220.17 354.29,244.33 445.71,258.83 567.62,273.33 659.05,263.67 720.00,239.50 720.00,370.00 80.00,370.00 80.00,176.67" stroke="blue" stroke-width="2" fill="#eef" />
  <circle cx="80.0" cy="176.66666666666669" r="4" fill="red" />
  <text x="83.0" y="166.66666666666669" font-size="9" text-anchor="start" font-family="Arial" transform="rotate(-45, 80.0, 176.66666666666669)">Inicio del camino</text>
  <circle cx="171.42857142857142" cy="196.0" r="4" fill="red" />
  <text x="174.42857142857142" y="186.0" font-size="9" text-anchor="start" font-family="Arial" transform="rotate(-45, 171.42857142857142, 196.0)">Intersección</text>
  <circle cx="232.38095238095238" cy="220.16666666666666" r="4" fill="red" />
  <text x="235.38095238095238" y="210.16666666666666" font-size="9" text-anchor="start" font-family="Arial" transform="rotate(-45, 232.38095238095238, 220.16666666666666)">Vista de Capafonts</text>
  <circle cx="354.2857142857143" cy="244.33333333333331" r="4" fill="red" />
  <text x="357.2857142857143" y="234.33333333333331" font-size="9" text-anchor="start" font-family="Arial" transform="rotate(-45, 354.2857142857143, 244.33333333333331)">Vista de Capafonts</text>
  <circle cx="445.71428571428567" cy="258.8333333333333" r="4" fill="red" />
  <text x="448.71428571428567" y="248.83333333333331" font-size="9" text-anchor="start" font-family="Arial" transform="rotate(-45, 445.71428571428567, 258.8333333333333)">Camino del dique</text>
  <circle cx="567.6190476190476" cy="273.33333333333337" r="4" fill="red" />
  <text x="570.6190476190476" y="263.33333333333337" font-size="9" text-anchor="start" font-family="Arial" transform="rotate(-45, 567.6190476190476, 273.33333333333337)">Dique</text>
  <circle cx="659.047619047619" cy="263.6666666666667" r="4" fill="red" />
  <text x="662.047619047619" y="253.66666666666669" font-size="9" text-anchor="start" font-family="Arial" transform="rotate(-45, 659.047619047619, 263.6666666666667)">Les tosques</text>
  <circle cx="720.0" cy="239.5" r="4" fill="red" />
  <text x="723.0" y="229.5" font-size="9" text-anchor="start" font-family="Arial" transform="rotate(-45, 720.0, 239.5)">Font de la Llúdriga</text>
  <text x="400.0" y="30" font-size="16" text-anchor="middle" font-family="Arial">Altimetría: La Font de la Llúdriga</text>
</svg>